# xmcd
#
# Track frame offsets: 
#        150
#        18995
#        40027
#        58462
#        77387
#        95127
#        117672
#        139402
#        166817
#        192135
#        219690
#        240420
#        263580
#        285372
#        313912
#        337702
#
# Disc length: 4715 seconds
#
# Revision: 0
# Processed by: cddbd v1.5.2PL0 Copyright (c) Steve Scherf et al.
# Submitted via: ExactAudioCopyFreeDBPlugin 1.0
#
DISCID=df126910
DTITLE=憂歌団 - BALLADS
DYEAR=2006
DGENRE=Blues
TTITLE0=夜明けのララバイ
TTITLE1=田舎のメリー
TTITLE2=四面楚歌＜シングル・ヴァージョン＞
TTITLE3=ひとり暮らし＜シングル・ヴァージョン＞
TTITLE4=サマータイム
TTITLE5=失恋ブルース
TTITLE6=ジェリー・ロール・ベイカー・ブルース
TTITLE7=Whoo BABY
TTITLE8=GOOD NIGHT SWEETHEART
TTITLE9=あんな女
TTITLE10=グッバイ・ベイビー
TTITLE11=心のなやみ
TTITLE12=SLOW TRAIN BLUES
TTITLE13=けだるい二人
TTITLE14=ステイ・ウィズ・ユー・フォー・エバー（君といつまでも）
TTITLE15=ハワイアン・ムード
EXTD=
EXTT0=
EXTT1=
EXTT2=
EXTT3=
EXTT4=
EXTT5=
EXTT6=
EXTT7=
EXTT8=
EXTT9=
EXTT10=
EXTT11=
EXTT12=
EXTT13=
EXTT14=
EXTT15=
PLAYORDER=
